<svg version="1.2" baseProfile="tiny-ps" xmlns="http://www.w3.org/2000/svg" width="29" height="30"><style/><g id="Мероприятия - 1"><g id="Сгруппировать 49"><g id="vuesax/linear/crown"><g id="crown"><path id="Vector" d="M21.31 23.09l-11.43.8c-.51.04-1.11-.33-1.32-.8L2.54 9.36c-.86-1.97-.06-2.65 1.75-1.53l4.98 3.06c.83.49 1.71.15 1.99-.76L13 4.27c.56-1.87 1.69-1.95 2.5-.17l2.54 5.55c.4.87 1.32 1.08 2.06.48l4.23-3.48c1.8-1.5 2.76-.87 2.14 1.39l-3.96 14.1c-.14.47-.69.91-1.2.95zM9.16 27.63l13.38-.93m-10.41-9.05l6.08-.43" fill="none" stroke="gold" stroke-linecap="round" stroke-width="2.5"/></g></g></g></g></svg>